<svg fill="none" height="512" viewBox="0 0 512 512" width="512" xmlns="http://www.w3.org/2000/svg"><path d="m257.106 206.055c20.847.767 73.211-6.79 115.898-43.158 31.212 5.985 61.582 11.701 72.866 13.811-56.227 33.375-147.454 91.494-188.764 91.494-44.529 0-142.864-58.119-203.4724-91.494 12.163-2.11 44.9001-7.826 78.5444-13.811 46.013 36.368 102.458 43.925 124.928 43.158z" fill="#000"/><path d="m257.106 289.493c13.197 0 46.13-1.496 90.653-18.99-9.18 11.509-20.655 48.912-29.261 62.147-20.655 28.772-44.409 46.495-61.392 59.845-18.306-13.35-43.91-31.073-66.175-59.845-9.277-13.235-21.646-50.638-31.541-62.147 47.992 17.494 84.52 18.99 97.716 18.99z" fill="#d9d9d9"/><g fill="#000"><path d="m375.299 235.402c12.814-2.685 40.392-8.747 48.195-11.509-19.508 58.694-111.308 168.602-158.355 226.146l10.327-58.695s30.983-24.168 45.9-47.185c14.918-23.017 53.933-108.757 53.933-108.757z"/><path d="m441.28 194.546c15.491 10.358 35.573 18.414 36.72 27.045-15.491 21.867-82.62 93.796-82.62 93.796l31.556 22.442c-56.801 40.856-116.471 73.656-161.797 127.171 0 0 84.915-109.908 107.865-140.406 65.819-87.466 68.276-130.048 68.276-130.048z"/><path d="m257.106 48.3858 16.639-14.3858 51.064 17.8385 27.54 107.6065c-16.065 16.112-48.884 35.101-95.243 35.101-49.971 0-85.347-18.989-102.664-35.101l29.686-107.6065 55.043-17.8385z"/><path d="m129.704 235.402c-13.812-2.685-43.5395-8.747-51.9505-11.509 21.0276 58.694 119.9805 168.602 170.6945 226.146l-11.132-58.695s-33.397-24.168-49.477-47.185-58.135-108.757-58.135-108.757z"/><path d="m58.5813 194.546c-16.6984 10.358-38.3444 18.414-39.5813 27.045 16.6984 21.867 89.058 93.796 89.058 93.796l-34.0153 22.442c61.2273 40.856 125.5473 73.656 174.4053 127.171 0 0-91.532-109.908-116.27-140.406-70.9478-87.466-73.5967-130.048-73.5967-130.048z"/></g><g stroke="#fff" stroke-opacity=".5" stroke-width="2"><path d="m257.106 206.055c20.847.767 73.211-6.79 115.898-43.158 31.212 5.985 61.582 11.701 72.866 13.811-56.227 33.375-147.454 91.494-188.764 91.494-44.529 0-142.864-58.119-203.4724-91.494 12.163-2.11 44.9001-7.826 78.5444-13.811 46.013 36.368 102.458 43.925 124.928 43.158z"/><path d="m257.106 289.493c13.197 0 46.13-1.496 90.653-18.99-9.18 11.509-20.655 48.912-29.261 62.147-20.655 28.772-44.409 46.495-61.392 59.845-18.306-13.35-43.91-31.073-66.175-59.845-9.277-13.235-21.646-50.638-31.541-62.147 47.992 17.494 84.52 18.99 97.716 18.99z"/><path d="m375.299 235.402c12.814-2.685 40.392-8.747 48.195-11.509-19.508 58.694-111.308 168.602-158.355 226.146l10.327-58.695s30.983-24.168 45.9-47.185c14.918-23.017 53.933-108.757 53.933-108.757z"/><path d="m441.28 194.546c15.491 10.358 35.573 18.414 36.72 27.045-15.491 21.867-82.62 93.796-82.62 93.796l31.556 22.442c-56.801 40.856-116.471 73.656-161.797 127.171 0 0 84.915-109.908 107.865-140.406 65.819-87.466 68.276-130.048 68.276-130.048z"/><path d="m257.106 48.3858 16.639-14.3858 51.064 17.8385 27.54 107.6065c-16.065 16.112-48.884 35.101-95.243 35.101-49.971 0-85.347-18.989-102.664-35.101l29.686-107.6065 55.043-17.8385z"/><path d="m129.704 235.402c-13.812-2.685-43.5395-8.747-51.9505-11.509 21.0276 58.694 119.9805 168.602 170.6945 226.146l-11.132-58.695s-33.397-24.168-49.477-47.185-58.135-108.757-58.135-108.757z"/><path d="m58.5813 194.546c-16.6984 10.358-38.3444 18.414-39.5813 27.045 16.6984 21.867 89.058 93.796 89.058 93.796l-34.0153 22.442c61.2273 40.856 125.5473 73.656 174.4053 127.171 0 0-91.532-109.908-116.27-140.406-70.9478-87.466-73.5967-130.048-73.5967-130.048z"/></g></svg>