<?xml version="1.0" encoding="UTF-8" standalone="no"?>
<!-- Created with Inkscape (http://www.inkscape.org/) -->

<svg
   width="355.91702mm"
   height="338.74084mm"
   viewBox="0 0 355.91702 338.74084"
   version="1.1"
   id="svg1"
   xml:space="preserve"
   inkscape:version="1.4.2 (ebf0e940, 2025-05-08)"
   sodipodi:docname="performance-tuning-cycle.svg"
   xmlns:inkscape="http://www.inkscape.org/namespaces/inkscape"
   xmlns:sodipodi="http://sodipodi.sourceforge.net/DTD/sodipodi-0.dtd"
   xmlns="http://www.w3.org/2000/svg"
   xmlns:svg="http://www.w3.org/2000/svg"><sodipodi:namedview
     id="namedview1"
     pagecolor="#ffffff"
     bordercolor="#000000"
     borderopacity="0.25"
     inkscape:showpageshadow="2"
     inkscape:pageopacity="0.0"
     inkscape:pagecheckerboard="0"
     inkscape:deskcolor="#d1d1d1"
     inkscape:document-units="mm"
     inkscape:zoom="0.38920968"
     inkscape:cx="494.59202"
     inkscape:cy="727.1145"
     inkscape:window-width="1920"
     inkscape:window-height="1021"
     inkscape:window-x="1920"
     inkscape:window-y="120"
     inkscape:window-maximized="0"
     inkscape:current-layer="layer1" /><defs
     id="defs1"><style
       id="style1">.cls-1{fill:#e29e9a;}.cls-2{fill:#f6e3a6;}.cls-3{fill:#623905;}.cls-4{fill:#268484;}.cls-5{fill:#2c9ea5;}.cls-6{fill:#842835;}</style></defs><g
     inkscape:label="Layer 1"
     inkscape:groupmode="layer"
     id="layer1"
     transform="translate(873.49307,369.73633)"><g
       style="fill:none"
       id="g1"
       transform="matrix(8.8194444,0,0,8.8194444,-346.74945,531.95496)"><path
         opacity="0.15"
         d="M 5,20 3,8 8.5,12.5 12,7 15.5,12.5 21,8 19,20 Z"
         fill="#000000"
         id="path1" /><path
         d="M 21,8 19,20 H 5 L 3,8 M 21,8 15.5,12.5 12,7 m 9,1 C 21.8284,8 22.5,7.32843 22.5,6.5 22.5,5.67157 21.8284,5 21,5 20.1716,5 19.5,5.67157 19.5,6.5 19.5,7.32843 20.1716,8 21,8 Z M 12,7 8.5,12.5 3,8 M 12,7 C 12.8284,7 13.5,6.32843 13.5,5.5 13.5,4.67157 12.8284,4 12,4 11.1716,4 10.5,4.67157 10.5,5.5 10.5,6.32843 11.1716,7 12,7 Z M 3,8 C 3.82843,8 4.5,7.32843 4.5,6.5 4.5,5.67157 3.82843,5 3,5 2.17157,5 1.5,5.67157 1.5,6.5 1.5,7.32843 2.17157,8 3,8 Z"
         stroke="#000000"
         stroke-width="1.5"
         stroke-linecap="round"
         stroke-linejoin="round"
         id="path2" /></g><g
       style="fill:none"
       id="g2"
       transform="matrix(3.3231518,0,0,3.3231518,-737.93554,-167.82737)"><g
         opacity="0.15"
         id="g3"><path
           d="m 12,3 c 1.1046,0 2,0.89543 2,2 0,1.10457 -0.8954,2 -2,2 -1.1046,0 -2,-0.89543 -2,-2 0,-1.10457 0.8954,-2 2,-2 z"
           fill="#000000"
           id="path1-7" /><path
           d="m 18,10 c 1.1046,0 2,0.8954 2,2 0,1.1046 -0.8954,2 -2,2 -1.1046,0 -2,-0.8954 -2,-2 0,-1.1046 0.8954,-2 2,-2 z"
           fill="#000000"
           id="path2-9" /><path
           d="m 6,17 c 1.10457,0 2,0.8954 2,2 0,1.1046 -0.89543,2 -2,2 -1.10457,0 -2,-0.8954 -2,-2 0,-1.1046 0.89543,-2 2,-2 z"
           fill="#000000"
           id="path3" /></g><path
         d="m 4,5 h 6 m 0,0 c 0,1.10457 0.8954,2 2,2 1.1046,0 2,-0.89543 2,-2 m -4,0 c 0,-1.10457 0.8954,-2 2,-2 1.1046,0 2,0.89543 2,2 m 0,0 h 6 M 4,12 h 12 m 0,0 c 0,1.1046 0.8954,2 2,2 1.1046,0 2,-0.8954 2,-2 0,-1.1046 -0.8954,-2 -2,-2 -1.1046,0 -2,0.8954 -2,2 z M 8,19 H 20 M 8,19 c 0,-1.1046 -0.89543,-2 -2,-2 -1.10457,0 -2,0.8954 -2,2 0,1.1046 0.89543,2 2,2 1.10457,0 2,-0.8954 2,-2 z"
         stroke="#000000"
         stroke-width="1.5"
         stroke-linecap="round"
         id="path4"
         style="stroke:#999999" /></g><g
       style="fill:none"
       id="g4"
       transform="matrix(8.8194444,0,0,8.8194444,376.74996,295.10798)"><path
         opacity="0.15"
         fill-rule="evenodd"
         clip-rule="evenodd"
         d="m 8,10 v 10 h 9.3604 c 0.9534,0 1.7742,-0.6729 1.9612,-1.6078 l 1.2,-6 C 20.7691,11.1547 19.8225,10 18.5604,10 H 14 L 16.4258,6.36138 C 17.1929,5.2106 16.5885,3.64714 15.2467,3.31169 L 15.1992,3.2998 c -0.735,-0.18373 -1.5106,0.06353 -2.0036,0.6387 z"
         fill="#000000"
         id="path1-3" /><path
         d="M 8,10 V 20 M 8,10 4,9.99998 V 20 H 8 M 8,10 13.1956,3.93847 c 0.493,-0.57517 1.2686,-0.82243 2.0036,-0.6387 l 0.0475,0.01189 c 1.3418,0.33545 1.9462,1.89891 1.1791,3.04969 L 14,9.99998 h 4.5604 c 1.2621,0 2.2087,1.15462 1.9612,2.39222 l -1.2,6 C 19.1346,19.3271 18.3138,20 17.3604,20 H 8"
         stroke="#000000"
         stroke-width="1.5"
         stroke-linecap="round"
         stroke-linejoin="round"
         id="path2-8" /></g><g
       style="fill:none"
       id="g5"
       transform="matrix(8.8194444,0,0,8.8194444,695.52739,-286.40046)"><path
         opacity="0.15"
         d="m 10,17 c 3.866,0 7,-3.134 7,-7 0,-3.86599 -3.134,-7 -7,-7 -3.86599,0 -7,3.13401 -7,7 0,3.866 3.13401,7 7,7 z"
         fill="#000000"
         id="path1-0" /><path
         d="m 20,20 -5.0503,-5.0503 m 0,0 C 16.2165,13.683 17,11.933 17,10 17,6.13401 13.866,3 10,3 6.13401,3 3,6.13401 3,10 c 0,3.866 3.13401,7 7,7 1.933,0 3.683,-0.7835 4.9497,-2.0503 z M 7,10 h 6 M 10,7 v 6"
         stroke="#000000"
         stroke-width="1.5"
         stroke-linecap="round"
         stroke-linejoin="round"
         id="path2-2" /></g><g
       style="fill:none"
       id="g6"
       transform="matrix(3.3231518,0,0,3.3231518,-663.18989,-289.83244)"><path
         opacity="0.15"
         fill-rule="evenodd"
         clip-rule="evenodd"
         d="M 12,5 C 5.63636,5 2,12 2,12 c 0,0 3.63636,7 10,7 6.3636,0 10,-7 10,-7 0,0 -3.6364,-7 -10,-7 z m 3,7 c 0,1.6569 -1.3431,3 -3,3 -1.6569,0 -3,-1.3431 -3,-3 0,-1.6569 1.3431,-3 3,-3 1.6569,0 3,1.3431 3,3 z"
         fill="#000000"
         id="path1-4" /><path
         d="M 12,5 C 5.63636,5 2,12 2,12 c 0,0 3.63636,7 10,7 6.3636,0 10,-7 10,-7 0,0 -3.6364,-7 -10,-7 z"
         stroke="#000000"
         stroke-width="1.5"
         stroke-linecap="round"
         stroke-linejoin="round"
         id="path2-83"
         style="stroke:#999999" /><path
         d="m 12,15 c 1.6569,0 3,-1.3431 3,-3 0,-1.6569 -1.3431,-3 -3,-3 -1.6569,0 -3,1.3431 -3,3 0,1.6569 1.3431,3 3,3 z"
         stroke="#000000"
         stroke-width="1.5"
         stroke-linecap="round"
         stroke-linejoin="round"
         id="path3-9"
         style="stroke:#999999" /></g><g
       style="fill:none"
       id="g8"
       transform="matrix(3.3231518,0,0,3.3231518,-812.51916,-295.60893)"><path
         opacity="0.15"
         d="M 19.41134,13.015821 C 19.41134,17.434121 15.6421,21 11.5,21 7.35786,21 4,17.4183 4,13 4,8.58172 7.35786,5 11.5,5 c 4.1421,0 7.91134,3.5975408 7.91134,8.015821 z"
         fill="#000000"
         id="path1-79"
         sodipodi:nodetypes="sssss" /><path
         d="m 10,3 h 4 m -2,6 v 4 l 2,2 m 6,-2 c 0,4.4183 -3.5817,8 -8,8 -4.41828,0 -8,-3.5817 -8,-8 0,-4.41828 3.58172,-8 8,-8 4.4183,0 8,3.58172 8,8 z"
         stroke="#000000"
         stroke-width="1.5"
         stroke-linecap="round"
         stroke-linejoin="round"
         id="path2-0"
         style="stroke:#999999" /></g><circle
       style="fill:none;stroke:none;stroke-width:1;stroke-linecap:round;stroke-linejoin:round;stroke-dasharray:none"
       id="path12"
       cx="-698.66113"
       cy="-214.34155"
       r="274.25504" /><path
       style="font-size:49.3889px;font-family:Iosevka;-inkscape-font-specification:Iosevka;fill:#999999;stroke-width:3.65822;stroke-linecap:round;stroke-linejoin:round"
       d="m -556.67911,-207.41306 36.16266,3.16443 -0.41332,4.72329 -19.8286,3.37138 18.9417,6.764 -0.41331,4.72329 -36.16266,-3.16443 0.32291,-3.69007 7.23253,0.63289 q 5.6581,0.49511 11.25408,1.13352 5.64088,0.69192 11.29468,1.23624 l -18.5075,-6.62685 0.26693,-3.05046 19.37718,-3.31173 q -5.6624,-0.44591 -11.33342,-0.79342 -5.62612,-0.29401 -11.28423,-0.78912 l -7.23253,-0.63289 z m -2.86465,25.58825 35.06345,9.3971 -4.65381,17.36476 -3.33937,-0.89496 3.65656,-13.64374 -11.83094,-3.17072 -2.94059,10.97223 -3.33937,-0.89496 2.94059,-10.97224 -13.21439,-3.54149 -3.65656,13.64374 -3.33938,-0.89496 z m -6.41222,22.44675 19.69853,15.01873 9.83883,7.53175 -1.87888,4.02838 -36.25955,-8.13782 1.67011,-3.58078 9.31854,2.22088 3.6325,-7.78821 -7.69019,-5.71214 z m 8.86099,11.38092 -3.04795,6.53493 11.27594,2.69786 q 1.57845,0.35472 3.1569,0.70945 1.55757,0.39949 3.11515,0.79897 -1.30706,-0.9366 -2.59324,-1.91797 -1.30705,-0.9366 -2.59323,-1.91796 z m -25.79083,18.93061 q 0.70833,-1.01135 1.57847,-1.90936 0.87014,-0.89801 1.92634,-1.54511 1.06831,-0.57832 2.29435,-0.86528 1.22604,-0.28696 2.4439,-0.21786 1.22998,0.13788 2.41132,0.60348 1.18134,0.46561 2.19268,1.17393 l 0.28318,0.19834 -2.20998,3.15538 -0.20227,-0.14166 q -0.93043,-0.65166 -2.04708,-0.95136 -1.11664,-0.29969 -2.21723,-0.10576 -1.12892,0.23438 -2.03542,0.92603 -0.93484,0.7321 -1.5865,1.66254 -0.65166,0.93044 -1.02014,2.0592 -0.36849,1.12877 -0.1341,2.25769 0.20605,1.16937 0.86937,2.11633 0.70377,0.97529 1.6342,1.62695 1.0518,0.73666 2.33435,0.97166 1.29467,0.30379 2.53284,0.0856 1.25028,-0.14939 2.42784,-0.71149 1.14922,-0.52166 2.28632,-1.11209 1.13711,-0.59044 2.27421,-1.18088 1.14923,-0.52165 2.36315,-0.8774 1.21392,-0.35575 2.4642,-0.50513 1.29074,-0.12105 2.54905,-0.0236 1.27043,0.16621 2.45177,0.63181 1.2218,0.49394 2.27359,1.2306 0.97089,0.67999 1.80011,1.56225 0.84135,0.95105 1.41967,2.01937 0.54998,1.10877 0.79649,2.30648 0.21817,1.23816 0.0398,2.43981 -0.13788,1.22997 -0.65606,2.3142 -0.50605,1.153 -1.21438,2.16435 -0.70833,1.01134 -1.55013,1.8689 -0.84181,0.85755 -1.91013,1.43587 -1.06832,0.57832 -2.30648,0.79649 -1.19771,0.24651 -2.39935,0.0682 -1.18953,-0.10955 -2.30208,-0.58727 -1.14089,-0.43727 -2.15223,-1.1456 l -0.28318,-0.19833 2.20998,-3.15539 0.20227,0.14166 q 0.88998,0.62333 1.93784,0.93515 1.08831,0.34015 2.16057,0.18667 1.11271,-0.12514 2.01921,-0.81679 0.91862,-0.62287 1.54195,-1.51285 0.62333,-0.88998 0.92302,-2.00662 0.2997,-1.11665 0.037,-2.20512 -0.22226,-1.06013 -0.91391,-1.96663 -0.69165,-0.90651 -1.62209,-1.55817 -1.05179,-0.73666 -2.30601,-1.01211 -1.25422,-0.27546 -2.53284,-0.0856 -1.27861,0.18984 -2.42784,0.71149 -1.14922,0.52165 -2.28633,1.11209 -1.09665,0.61878 -2.24587,1.14043 -1.17756,0.5621 -2.39148,0.91785 -1.24225,0.3962 -2.53299,0.51725 -1.25028,0.14939 -2.52071,-0.0168 -1.22998,-0.13788 -2.41132,-0.60349 -1.20968,-0.42515 -2.26147,-1.1618 -1.0518,-0.73666 -1.89314,-1.68771 -0.80089,-0.92272 -1.39133,-2.05982 -0.54999,-1.10877 -0.73983,-2.38739 -0.14938,-1.25028 0.0573,-2.49238 0.17833,-1.20164 0.75318,-2.36677 0.50605,-1.15301 1.21438,-2.16435 z m -15.84006,18.87905 q 0.90814,-0.90787 2.02579,-1.60617 1.08273,-0.73322 2.34002,-1.08227 1.22236,-0.31412 2.5145,-0.20916 1.29215,0.10497 2.51439,0.55915 1.18732,0.48911 2.2349,1.25757 1.04758,0.76847 1.95545,1.67661 l 18.85571,18.861377 -2.72442,2.723603 -18.85571,-18.86138 q -0.55869,-0.55885 -1.22215,-1.0828 -0.62855,-0.48902 -1.32696,-0.83836 -0.73334,-0.31441 -1.53655,-0.48915 -0.76829,-0.13981 -1.57154,-0.0352 -0.80326,0.17449 -1.50179,0.59347 -0.69852,0.41897 -1.25738,0.97766 -0.55886,0.55869 -0.97804,1.25709 -0.41918,0.6984 -0.55899,1.46669 -0.13982,0.83814 -2.4e-4,1.60647 0.17449,0.80326 0.52362,1.50178 0.3142,0.73343 0.80303,1.36212 0.52375,0.663623 1.08244,1.222479 l 18.85571,18.861375 -2.72442,2.723602 -18.85571,-18.861375 q -0.90787,-0.90814 -1.67603,-1.955952 -0.76815,-1.047812 -1.22197,-2.270189 -0.48874,-1.18747 -0.59332,-2.47964 -0.10458,-1.29218 0.24485,-2.54936 0.31449,-1.22227 1.04804,-2.30478 0.69863,-1.11744 1.60677,-2.0253 z m -23.67456,19.669879 14.55749,8.137345 3.47975,-2.435596 -8.60955,-12.300514 3.15606,-2.209029 20.81585,29.73973 -7.76875,5.43761 q -1.09248,0.764663 -2.31442,1.258233 -1.26241,0.521891 -2.61785,0.566338 -1.32713,0.08491 -2.63804,-0.323805 -1.2826,-0.368251 -2.39524,-1.096598 -1.15311,-0.700026 -2.03916,-1.707543 -0.92651,-0.979196 -1.69118,-2.071676 -0.96291,-1.375716 -1.68304,-2.921356 -0.72014,-1.545641 -0.85359,-3.2005 -0.13345,-1.65486 0.40476,-3.297551 0.49774,-1.614371 1.5781,-2.91312 l -14.82048,-8.254693 z m 15.40701,11.762685 q -0.68786,0.481455 -1.23411,1.165221 -0.54625,0.683766 -0.78905,1.45656 -0.25494,0.841576 -0.19429,1.703398 0.0607,0.861821 0.31147,1.650821 0.27915,0.829462 0.67968,1.573961 0.40053,0.7445 0.91031,1.47282 0.48145,0.687858 1.04383,1.319073 0.56238,0.631216 1.21782,1.137007 0.68377,0.546254 1.47274,0.898299 0.78898,0.352045 1.63866,0.360175 0.83754,0.07691 1.667,-0.202231 0.82946,-0.279144 1.51732,-0.760599 l 4.61269,-3.22858 -8.24138,-11.774506 z m -23.74267,-6.688837 15.33427,32.903063 -16.29485,7.594111 -1.46041,-3.133625 12.8031,-5.966802 -5.17401,-11.101986 -10.2962,4.798477 -1.46041,-3.133625 10.2962,-4.798477 -5.77903,-12.400201 -12.8031,5.966801 -1.46041,-3.133625 z m -141.83763,-3.702308 -1.98417,2.831163 -5.50054,-3.854945 -16.86539,24.064891 5.50055,3.854946 -1.98417,2.831163 -14.15582,-9.920816 1.98417,-2.831163 5.50054,3.854945 16.86539,-24.064891 -5.50055,-3.854946 1.98417,-2.831163 z m -25.65012,-21.066429 q 0.87268,0.87347 1.60561,1.88658 0.73294,1.0131 1.18642,2.16577 0.38363,1.15264 0.45291,2.40991 0.0693,1.25727 -0.21064,2.44453 -0.34976,1.18723 -1.01379,2.269554 -0.66403,1.082321 -1.53751,1.955008 l -0.24457,0.244353 -2.72278,-2.725239 0.17469,-0.174537 q 0.8036,-0.802869 1.293,-1.850349 0.48939,-1.04748 0.4899,-2.16502 -0.0344,-1.15248 -0.5578,-2.16549 -0.5583,-1.04795 -1.36117,-1.85155 -0.80287,-0.80359 -1.85032,-1.36284 -1.04744,-0.55924 -2.19993,-0.52484 -1.18738,-5.3e-4 -2.2353,0.48792 -1.08286,0.52336 -1.88645,1.32624 -0.90842,0.90759 -1.36297,2.1297 -0.5244,1.22208 -0.52497,2.47931 -0.0704,1.25721 0.27826,2.5146 0.31376,1.222454 0.69736,2.444939 0.38361,1.222486 0.76721,2.444972 0.31376,1.222455 0.45288,2.479754 0.13913,1.257299 0.0687,2.514503 -0.10535,1.292112 -0.42021,2.514283 -0.38471,1.22214 -1.04874,2.304461 -0.69897,1.117228 -1.60738,2.024823 -0.83854,0.83778 -1.85161,1.500865 -1.08292,0.663053 -2.23556,1.046689 -1.18754,0.348697 -2.40987,0.38307 -1.25724,-5.67e-4 -2.40953,-0.385241 -1.18723,-0.349768 -2.16477,-1.048673 -1.04738,-0.698936 -1.92007,-1.57241 -0.87268,-0.873474 -1.57071,-1.851639 -0.69802,-0.978165 -1.08166,-2.130805 -0.38363,-1.152639 -0.38307,-2.409875 -0.0344,-1.222329 0.3503,-2.374622 0.31483,-1.152325 0.97883,-2.164799 0.62909,-1.047414 1.50256,-1.920101 l 0.24458,-0.244352 2.72278,2.725239 -0.17469,0.174537 q -0.76866,0.767965 -1.25803,1.745595 -0.5243,1.012537 -0.55971,2.095141 -0.0703,1.117512 0.45304,2.130521 0.45354,1.012978 1.22151,1.781636 0.76796,0.768657 1.81544,1.258054 1.04748,0.489397 2.16505,0.420054 1.08264,-0.03444 2.09565,-0.557827 1.01301,-0.523392 1.8166,-1.326264 0.90842,-0.907595 1.39788,-2.094764 0.48946,-1.187169 0.52496,-2.479313 0.0355,-1.292144 -0.27825,-2.514598 -0.31376,-1.222454 -0.69736,-2.44494 -0.41855,-1.187579 -0.73231,-2.410033 -0.34866,-1.257394 -0.48779,-2.51469 -0.17403,-1.29224 -0.0687,-2.58435 0.0704,-1.25721 0.45512,-2.47935 0.34977,-1.18723 1.0138,-2.26955 0.62912,-1.11726 1.53753,-2.02485 0.90841,-0.9076 1.99133,-1.57065 1.04798,-0.62815 2.27047,-1.01175 1.18754,-0.3487 2.47969,-0.31319 1.2572,0.0704 2.4444,0.49002 1.1523,0.38468 2.19965,1.15346 1.04738,0.69894 1.92007,1.57241 z m -15.83529,-18.883 q 0.76433,1.09271 1.32632,2.32696 0.53367,1.19378 0.69912,2.46431 0.12498,1.29884 -0.14657,2.63396 -0.29985,1.29465 -0.95975,2.41924 -0.65991,1.12458 -1.5706,2.06296 -0.97948,0.92622 -2.07218,1.69056 l -13.9624,9.76651 q -1.09271,0.76434 -2.25819,1.33848 -1.23425,0.56198 -2.51694,0.79621 -1.2827,0.23423 -2.60167,0.0719 -1.34728,-0.20277 -2.48403,-0.7939 -1.17722,-0.56281 -2.1156,-1.4735 -0.96669,-0.95117 -1.73102,-2.04388 -0.76434,-1.09271 -1.29801,-2.28649 -0.56199,-1.23425 -0.68697,-2.53309 -0.16545,-1.27054 0.13441,-2.56518 0.27155,-1.33512 0.93145,-2.45971 0.6599,-1.12459 1.63937,-2.05081 0.9107,-0.93838 2.00341,-1.70271 l 13.9624,-9.76651 q 1.09271,-0.76434 2.32696,-1.32632 1.16548,-0.57414 2.44817,-0.80838 1.28269,-0.23423 2.62997,-0.0315 1.31897,0.1623 2.49619,0.72511 1.13675,0.59113 2.10344,1.54229 0.93838,0.9107 1.70272,2.00341 z m -2.83295,1.98161 q -0.48125,-0.688 -1.0556,-1.25061 -0.64313,-0.57477 -1.40369,-0.88658 -0.76056,-0.31181 -1.56977,-0.3485 -0.87798,-0.0489 -1.6549,0.13295 -0.84569,0.16964 -1.54984,0.54164 -0.74462,0.40031 -1.43262,0.88155 l -13.9624,9.76652 q -0.688,0.48124 -1.27892,1.01512 -0.63138,0.56219 -1.04028,1.27012 -0.47768,0.69576 -0.6924,1.50896 -0.28351,0.80103 -0.25142,1.62239 0.0321,0.82137 0.39192,1.5943 0.29106,0.76077 0.77231,1.44877 0.48124,0.688 1.12438,1.26277 0.57435,0.5626 1.33491,0.87442 0.76055,0.31181 1.63854,0.36066 0.80921,0.0367 1.6549,-0.13295 0.77691,-0.1818 1.52153,-0.58211 0.70415,-0.372 1.39215,-0.85325 l 13.9624,-9.76651 q 0.68801,-0.48125 1.31939,-1.04344 0.59092,-0.53388 1.06859,-1.22964 0.4089,-0.70793 0.69241,-1.50896 0.21472,-0.81319 0.18264,-1.63456 -0.0321,-0.82137 -0.32315,-1.58213 -0.35983,-0.77293 -0.84108,-1.46093 z m -6.60116,-16.22575 -32.90767,15.32437 -1.62626,-3.49224 29.77361,-13.86491 -5.58767,-11.99899 3.13406,-1.45946 z m -9.00609,-20.24684 -24.74434,1.1454 -12.37854,0.54884 -1.14809,-4.29417 33.01529,-17.05784 1.02052,3.81704 -8.56797,4.28455 2.21963,8.30207 9.56298,-0.56293 z m -14.102,-3.02914 -1.86246,-6.9661 -10.37444,5.17651 q -1.43752,0.7422 -2.87504,1.4844 -1.45028,0.69448 -2.90056,1.38897 1.60336,-0.12193 3.21947,-0.19615 1.60336,-0.12193 3.21947,-0.19614 z m 7.37194,-29.17222 -32.72031,2.8434 0.6542,7.52813 -3.44424,0.2993 -1.64191,-18.89413 3.44425,-0.2993 0.65419,7.52813 32.72031,-2.8434 z m -0.92357,-17.82531 -36.16075,-3.18616 1.57791,-17.90818 3.44388,0.30345 -1.23979,14.07071 12.20118,1.07506 0.99703,-11.31561 3.44388,0.30344 -0.99703,11.31561 13.62793,1.20077 1.23978,-14.07071 3.44388,0.30344 z m 71.25359,-118.5673 q -1.15538,0.66583 -2.43406,1.11769 -1.23589,0.42721 -2.51602,0.48089 -1.3048,0.0109 -2.61105,-0.3764 -1.26345,-0.41195 -2.32601,-1.1677 -1.06255,-0.75574 -1.91768,-1.74502 -0.83699,-1.05674 -1.50281,-2.21212 l -8.50777,-14.76317 q -0.66582,-1.15538 -1.13582,-2.36661 -0.45187,-1.27868 -0.573,-2.57694 -0.12114,-1.29827 0.15591,-2.59799 0.31984,-1.32438 1.00813,-2.40506 0.66363,-1.12348 1.65292,-1.97861 1.03208,-0.87978 2.18745,-1.54561 1.15538,-0.66582 2.39127,-1.09303 1.27868,-0.45186 2.58347,-0.46275 1.28014,-0.0537 2.54359,0.35827 1.30625,0.38729 2.36881,1.14303 1.06255,0.75574 1.89954,1.81248 0.85513,0.98929 1.52095,2.14466 l 8.50777,14.76318 q 0.66582,1.15538 1.11769,2.43406 0.47,1.21122 0.59113,2.50949 0.12114,1.29826 -0.1987,2.62264 -0.27705,1.29972 -0.94068,2.4232 -0.68829,1.08069 -1.72037,1.96047 -0.98929,0.85512 -2.14466,1.52095 z m -1.72622,-2.99543 q 0.72746,-0.41922 1.33815,-0.94216 0.62882,-0.59039 1.00597,-1.32076 0.37714,-0.73037 0.48447,-1.53326 0.12547,-0.87035 0.0123,-1.66019 -0.095,-0.85729 -0.404,-1.59128 -0.33364,-0.77678 -0.75286,-1.50424 l -8.50777,-14.76317 q -0.41922,-0.72746 -0.89937,-1.36281 -0.5048,-0.67814 -1.17425,-1.1474 -0.65131,-0.5367 -1.44261,-0.82174 -0.77316,-0.35248 -1.59418,-0.39236 -0.82103,-0.0399 -1.62247,0.25096 -0.78331,0.2234 -1.51077,0.64262 -0.72746,0.41922 -1.35628,1.00961 -0.61069,0.52294 -0.98784,1.25331 -0.37714,0.73037 -0.50261,1.60072 -0.10733,0.80289 -0.0123,1.66018 0.11315,0.78984 0.44679,1.56662 0.30898,0.73399 0.7282,1.46145 l 8.50777,14.76318 q 0.41922,0.72746 0.92403,1.4056 0.48014,0.63535 1.13146,1.17205 0.66944,0.46926 1.44261,0.82174 0.79129,0.28503 1.61231,0.32492 0.82103,0.0399 1.60434,-0.18352 0.80144,-0.29084 1.5289,-0.71007 z m 15.99813,-4.8869 -12.38716,-34.12198 8.1707,-2.96618 q 1.25346,-0.45503 2.60804,-0.63153 1.38416,-0.23977 2.73429,0.006 1.35013,0.24546 2.55654,0.96344 1.18956,0.67156 2.13842,1.69321 0.932,0.97522 1.58959,2.20769 0.64073,1.18605 1.09577,2.43951 0.47189,1.29989 0.75809,2.66718 0.26934,1.32088 0.19685,2.7133 -0.0893,1.346 -0.5542,2.67069 -0.48172,1.27828 -1.35996,2.3327 -0.87824,1.05442 -2.07701,1.80486 -1.16919,0.68716 -2.42265,1.1422 l -4.5496,1.65162 5.12339,14.11303 z m 1.86758,-20.32893 q 0.83564,-0.30335 1.55744,-0.77556 0.70495,-0.51863 1.18636,-1.21882 0.52783,-0.71704 0.73928,-1.58194 0.25787,-0.88175 0.26676,-1.72566 -0.008,-0.89034 -0.21847,-1.75969 -0.21051,-0.86934 -0.51387,-1.70498 -0.2865,-0.78922 -0.68271,-1.59115 -0.39621,-0.80194 -0.94441,-1.44361 -0.56505,-0.68809 -1.32852,-1.19908 -0.71704,-0.52783 -1.58194,-0.73927 -0.81848,-0.2283 -1.6751,-0.1275 -0.87349,0.0544 -1.70913,0.35775 l -4.54959,1.65162 4.9043,13.50952 z m 27.95608,11.43357 -5.67517,-32.34959 -7.44284,1.30572 -0.59738,-3.40522 18.68006,-3.27709 0.59738,3.40522 -7.44283,1.30571 5.67517,32.34959 z m 17.82585,-2.46849 0.003,-3.45723 6.71689,0.006 0.0265,-29.38639 -6.71689,-0.006 0.003,-3.45722 17.28611,0.0156 -0.003,3.45722 -6.71689,-0.006 -0.0265,29.38639 6.71689,0.006 -0.003,3.45722 z m 23.53343,0.4642 6.33698,-35.74345 4.66853,0.82769 1.61198,20.04847 8.40591,-18.27239 4.66853,0.82768 -6.33697,35.74345 -3.64729,-0.64663 1.26739,-7.14869 q 0.9915,-5.59251 2.12027,-11.11053 1.18602,-5.55802 2.22615,-11.14191 l -8.23105,17.85196 -3.01509,-0.53455 -1.59232,-19.59355 q -0.94287,5.60113 -1.78848,11.21951 -0.78835,5.57837 -1.77985,11.17088 l -1.26739,7.14869 z m 25.37574,5.15786 1.18558,-3.24758 6.30959,2.30342 10.07746,-27.60444 -6.30959,-2.30342 1.18559,-3.24758 16.2379,5.92791 -1.18558,3.24758 -6.30959,-2.30342 -10.07746,27.60444 6.30959,2.30342 -1.18558,3.24758 z m 22.51055,8.80812 1.73161,-2.99231 26.81615,-18.43399 -12.09748,-7.00065 1.73161,-2.99231 15.90199,9.20226 -1.73161,2.99231 -26.81615,18.434 12.09748,7.00064 -1.73161,2.99232 z m 21.41128,13.11036 23.36248,-27.78391 13.75965,11.57 -2.225,2.64608 -10.81115,-9.09071 -7.88285,9.37471 8.69428,7.31071 -2.225,2.64608 -8.69428,-7.31071 -8.80464,10.47095 10.81115,9.0907 -2.225,2.64609 z"
       id="text12"
       inkscape:transform-center-x="1.9313315"
       inkscape:transform-center-y="14.110835"
       transform="rotate(176.61211,-697.00636,-209.41494)"
       aria-label="MEASURE     ISOLATE     OPTIMIZE" /><circle
       style="fill:none;stroke:none;stroke-width:0.515815;stroke-linecap:round;stroke-linejoin:round;stroke-dasharray:none"
       id="circle15"
       cx="-698.46234"
       cy="-209.95392"
       r="141.46497" /></g></svg>
