<?xml version="1.0" encoding="utf-8"?>
<!-- Uploaded to: SVG Repo, www.svgrepo.com, Generator: SVG Repo Mixer Tools -->
<svg width="800px" height="800px" viewBox="0 -59.69 351.479 351.479" xmlns="http://www.w3.org/2000/svg"><defs><style>.a{fill:#ffffff;}.b{fill:#f2635f;}.c{fill:#211715;}</style></defs><path class="a" d="M68.928,144.661c-.012-28.959-.027-67.343-.036-91.846a8.672,8.672,0,0,1,8.677-8.678c37.39-.011,145.733-.048,190.065-.064a8.679,8.679,0,0,1,8.686,8.681c0,32.869.013,86.255.026,120.266,6.866,9.648,21.6,29.954,28.8,42.254a7.944,7.944,0,0,1,1.086,4.03c0,1.256-.026,2.775-.026,4.344a6.028,6.028,0,0,1-6.027,6.019H44.063a5.024,5.024,0,0,1-5.025-5.023c0-7.751-.029,2.275-.029-5.329a8,8,0,0,1,1.09-4.047c7.281-12.434,22.071-33.379,28.84-42.883C68.936,165.376,68.932,155.7,68.928,144.661Z"/><path class="b" d="M82.622,62.135c.012,27.623.035,82.081.043,99.253a5.316,5.316,0,0,0,5.322,5.315l169.31-.058a5.32,5.32,0,0,0,5.321-5.322c-.013-30.2-.031-72.811-.042-99.24a5.316,5.316,0,0,0-5.317-5.32c-25.619.009-136.462.045-169.315.054A5.317,5.317,0,0,0,82.622,62.135Z"/><path class="c" d="M80.222,62.135l.027,63.771.012,28.085,0,4.991c0,2.148-.087,4.26,1,6.207a8.007,8.007,0,0,0,7.254,3.914l4.589,0,53.245-.019,63.51-.021,27.908-.01,11.353,0,4.89,0c1.832,0,3.844.206,5.6-.358a7.832,7.832,0,0,0,5.39-7.015c.175-2.9.009-5.864.008-8.768q0-9.482-.008-18.961-.009-19.815-.017-39.629l-.008-18.586,0-8.507c0-2.716.421-5.811-.716-8.345a7.829,7.829,0,0,0-7.119-4.514c-1.04-.022-2.082,0-3.121,0l-8.044,0-49.5.016-59.907.019-46.13.014a14.409,14.409,0,0,0-5.134.473,7.863,7.863,0,0,0-5.088,7.246c-.1,3.089,4.7,3.086,4.8,0,.121-3.783,4.891-2.918,7.467-2.919l9.288,0,23.575-.007,57.512-.019,52.971-.017,17.9-.006c1.018,0,2.037-.005,3.055,0a3.062,3.062,0,0,1,3.388,3.231c.047,5.357,0,10.717.007,16.074q.017,37.595.032,75.189l0,4.437a16.817,16.817,0,0,1-.088,3.952c-.508,2-2.322,2.2-4.068,2.2l-9.588,0-24.736.008-61.159.02-56.64.02-10.626,0-4.434,0c-1.965,0-3.7-.662-3.813-2.915-.164-3.156,0-6.365,0-9.525l-.006-13-.027-63.652-.006-13.072C85.021,59.046,80.221,59.041,80.222,62.135Z"/><path class="c" d="M71.328,144.661l-.021-53Q71.3,78.891,71.3,66.116q0-5.615,0-11.227a11.041,11.041,0,0,1,.53-4.636,6.374,6.374,0,0,1,3.184-3.183c1.995-.9,4.535-.534,6.678-.534l6.691,0,15.892,0,38.932-.013,43.705-.015,42.138-.015,34.378-.012c2.5,0,5.3-.406,7.533.945a6.174,6.174,0,0,1,2.64,3.328,15.066,15.066,0,0,1,.326,4.679q0,11.188,0,22.377,0,25.549.011,51.1,0,12.447.007,24.894,0,5.722,0,11.445,0,2.683,0,5.367c0,.8-.053,1.617,0,2.412a4.866,4.866,0,0,0,1.246,2.5c8.645,12.116,17.447,24.168,25.345,36.791.862,1.378,1.748,2.754,2.536,4.175,1.115,2.01.749,4.427.733,6.642a3.876,3.876,0,0,1-1.8,3.645,4.987,4.987,0,0,1-2.678.5H46.458c-1.2,0-2.774.25-3.816-.416-1.8-1.149-1.084-3.547-1.211-5.347-.179-2.549-4.1-3.438-4.714-.638a14.216,14.216,0,0,0-.1,1.493h4.8a11.59,11.59,0,0,1,.4-5.175,45.871,45.871,0,0,1,3.977-6.626c3.113-4.936,6.352-9.792,9.632-14.618q4.869-7.167,9.861-14.247,2.1-2.984,4.209-5.958a10.315,10.315,0,0,0,1.763-2.712c.376-1.367.085-3.207.084-4.613l-.009-23.749c0-3.089-4.8-3.094-4.8,0q0,13.861.011,27.724l.327-1.211c-9.436,13.251-18.935,26.549-27.39,40.456-1.346,2.214-2.619,4.324-2.833,6.977a21.269,21.269,0,0,0-.027,3.752,2.4,2.4,0,0,0,4.8,0c.045-.392.2-1.447-.071-.217l-4.714-.638c.056.789.007,1.6.007,2.388a8.164,8.164,0,0,0,1.948,5.754c1.9,2.114,4.442,2.421,7.1,2.421H297.227a18.468,18.468,0,0,0,5.358-.35,8.616,8.616,0,0,0,4.777-3.675c1.241-2,1.234-4.163,1.254-6.438.022-2.687-.057-5.131-1.4-7.542-.847-1.521-1.8-3-2.721-4.469-2.078-3.309-4.234-6.57-6.421-9.808-4.612-6.828-9.368-13.558-14.152-20.265q-2.751-3.858-5.5-7.711l.327,1.211q-.009-23.457-.015-46.913-.007-25.15-.011-50.3,0-10.947,0-21.893c0-3.81-1.06-7.328-4.149-9.782-2.821-2.242-5.951-2.458-9.4-2.457l-33.2.011-41.224.015-43.28.014-39.37.013-29.589.01c-3.528,0-6.845,1.007-9.233,3.747-2.681,3.076-2.78,6.6-2.779,10.465L66.5,79.572l.021,52.971q0,6.058.005,12.118C66.529,147.749,71.329,147.754,71.328,144.661Z"/><path class="c" d="M285.4,213.538H67.621c-2.947,0-5.9-.06-8.847,0-.127,0-.254,0-.381,0-3.089,0-3.094,4.8,0,4.8H276.172c2.947,0,5.9.059,8.847,0,.127,0,.254,0,.381,0,3.089,0,3.094-4.8,0-4.8Z"/><path class="c" d="M198.975,92.141a28.33,28.33,0,0,0-3.095-2.764,36.817,36.817,0,0,0-18.769-7.026c-1.423-.144-7.559-.144-8.981,0a36.824,36.824,0,0,0-18.77,7.026,25.947,25.947,0,0,0-10.153,16.969c-.947,7.651,2.239,15.464,7.482,21.116a17.847,17.847,0,0,0,7.822,5.3c.057,3.452.109,6.921.161,10.389a1.288,1.288,0,0,0,.156.725,1.114,1.114,0,0,0,.512.358,8.637,8.637,0,0,0,3.191.463c4.7.086,23.482.086,28.178,0a8.642,8.642,0,0,0,3.192-.463,1.114,1.114,0,0,0,.512-.358,1.288,1.288,0,0,0,.155-.725c.052-3.468.1-6.937.161-10.389a17.856,17.856,0,0,0,7.823-5.3c5.243-5.652,8.428-13.465,7.481-21.116A25.166,25.166,0,0,0,198.975,92.141Z"/><path class="c" d="M200.672,90.444c-5.858-5.965-13.784-9.22-21.981-10.305a46.976,46.976,0,0,0-17.456,1,34.414,34.414,0,0,0-19.415,12.6,26.02,26.02,0,0,0-4.345,21.852,31.29,31.29,0,0,0,5.932,11.719,22.093,22.093,0,0,0,10.466,7.768l-1.762-2.314q.077,4.7.146,9.4c.024,1.565.123,3.083,1.587,4a8.354,8.354,0,0,0,4.077.92c2.774.1,5.559.062,8.335.071,6.682.02,13.368.056,20.05-.049,2.9-.046,6.441-.35,6.662-3.953.212-3.444.105-6.939.161-10.389l-1.762,2.314c6.555-2.036,11.659-8.08,14.462-14.145,2.97-6.423,3.745-13.773,1.2-20.477a29.8,29.8,0,0,0-6.361-10.007c-2.135-2.241-5.526,1.156-3.4,3.394,5.137,5.393,7.688,12.717,5.956,20.079a26.436,26.436,0,0,1-4.733,9.913c-2.152,2.827-4.949,5.54-8.409,6.615a2.467,2.467,0,0,0-1.762,2.314q-.043,2.718-.086,5.436-.018,1.238-.037,2.476a8.7,8.7,0,0,1-.108,2.564l.618-1.059c.34-.318-.533.045-.785.073-.445.048-.9.039-1.35.047q-.624.012-1.248.017-1.752.019-3.5.026-4.6.023-9.208.02t-9.208-.02q-1.752-.009-3.5-.026-.624-.006-1.248-.017c-.447-.008-.9,0-1.35-.047-.252-.028-1.125-.391-.784-.073l.617,1.059a7.817,7.817,0,0,1-.1-2.317L157,138.2q-.042-2.718-.086-5.436a2.465,2.465,0,0,0-1.762-2.314c-3.143-.977-5.622-3.276-7.705-5.746a26.164,26.164,0,0,1-4.836-8.641,21.338,21.338,0,0,1,2.465-18.617c3.687-5.647,9.619-9.392,16.008-11.282a45.117,45.117,0,0,1,15.505-1.445,32.161,32.161,0,0,1,20.691,9.124C199.446,96.046,202.839,92.651,200.672,90.444Z"/><path class="c" d="M176.652,136.416v6.935a2.4,2.4,0,0,0,4.8,0v-6.935a2.4,2.4,0,0,0-4.8,0Z"/><path class="c" d="M163.8,136.416v6.935a2.4,2.4,0,0,0,4.8,0v-6.935a2.4,2.4,0,0,0-4.8,0Z"/><path class="a" d="M195.3,108.025c-.947-4.3-5.2-7.1-9.412-7.277a7.4,7.4,0,0,0-4.939,1.491c-2.372,1.909-2.991,5.5-1.909,8.355,1.4,3.688,4.419,6.8,8.875,6.8a7.7,7.7,0,0,0,7.385-9.367Z"/><path class="a" d="M151.135,108.025c.947-4.3,5.2-7.1,9.412-7.277a7.4,7.4,0,0,1,4.939,1.491c2.372,1.909,2.991,5.5,1.91,8.355-1.4,3.688-4.42,6.8-8.876,6.8a7.7,7.7,0,0,1-7.385-9.367Z"/><path class="c" d="M51.1,18.563l2.233-2.748A2.173,2.173,0,0,0,52.2,12.346l-3.422-.912a2.171,2.171,0,0,1-1.61-2.216l.191-3.536a2.172,2.172,0,0,0-2.951-2.144l-3.3,1.274A2.172,2.172,0,0,1,38.5,3.965L36.578.992a2.173,2.173,0,0,0-3.648,0L31.006,3.965a2.172,2.172,0,0,1-2.606.847L25.1,3.538a2.172,2.172,0,0,0-2.951,2.144l.191,3.536a2.172,2.172,0,0,1-1.611,2.216l-3.422.912a2.172,2.172,0,0,0-1.127,3.469l2.233,2.748a2.171,2.171,0,0,1,0,2.74l-2.233,2.749A2.172,2.172,0,0,0,17.3,27.521l3.422.911a2.174,2.174,0,0,1,1.611,2.217l-.191,3.536A2.172,2.172,0,0,0,25.1,36.329l3.3-1.274a2.172,2.172,0,0,1,2.606.847l1.924,2.973a2.173,2.173,0,0,0,3.648,0L38.5,35.9a2.172,2.172,0,0,1,2.606-.847l3.3,1.274a2.172,2.172,0,0,0,2.951-2.144l-.191-3.536a2.173,2.173,0,0,1,1.61-2.217l3.422-.911a2.173,2.173,0,0,0,1.128-3.469L51.1,21.3A2.171,2.171,0,0,1,51.1,18.563Z"/><path class="c" d="M348.758,166.832l2.233-2.748a2.173,2.173,0,0,0-1.127-3.47l-3.422-.911a2.173,2.173,0,0,1-1.611-2.216l.191-3.537a2.173,2.173,0,0,0-2.951-2.144l-3.3,1.275a2.174,2.174,0,0,1-2.606-.847l-1.924-2.973a2.172,2.172,0,0,0-3.647,0l-1.924,2.973a2.174,2.174,0,0,1-2.606.847l-3.3-1.275a2.173,2.173,0,0,0-2.951,2.144l.191,3.537a2.173,2.173,0,0,1-1.611,2.216l-3.422.911a2.173,2.173,0,0,0-1.127,3.47l2.233,2.748a2.174,2.174,0,0,1,0,2.74l-2.233,2.749a2.172,2.172,0,0,0,1.127,3.469l3.422.911A2.174,2.174,0,0,1,320,178.918l-.191,3.536a2.173,2.173,0,0,0,2.951,2.144l3.3-1.274a2.173,2.173,0,0,1,2.606.846l1.924,2.973a2.172,2.172,0,0,0,3.647,0l1.924-2.973a2.173,2.173,0,0,1,2.606-.846l3.3,1.274a2.173,2.173,0,0,0,2.951-2.144l-.191-3.536a2.174,2.174,0,0,1,1.611-2.217l3.422-.911a2.172,2.172,0,0,0,1.127-3.469l-2.233-2.749A2.174,2.174,0,0,1,348.758,166.832Z"/><path class="c" d="M319.607,38.769,321,37.05a1.358,1.358,0,0,0-.7-2.17l-2.14-.57a1.357,1.357,0,0,1-1.007-1.386l.119-2.212a1.359,1.359,0,0,0-1.846-1.341l-2.066.8a1.36,1.36,0,0,1-1.63-.53l-1.2-1.859a1.359,1.359,0,0,0-2.282,0l-1.2,1.859a1.36,1.36,0,0,1-1.63.53l-2.067-.8a1.359,1.359,0,0,0-1.846,1.341l.12,2.212a1.358,1.358,0,0,1-1.007,1.386l-2.141.57a1.359,1.359,0,0,0-.7,2.17l1.4,1.719a1.361,1.361,0,0,1,0,1.714l-1.4,1.719a1.359,1.359,0,0,0,.7,2.17l2.141.57a1.358,1.358,0,0,1,1.007,1.386l-.12,2.212a1.359,1.359,0,0,0,1.846,1.341l2.067-.8a1.358,1.358,0,0,1,1.63.529l1.2,1.86a1.36,1.36,0,0,0,2.282,0l1.2-1.86a1.358,1.358,0,0,1,1.63-.529l2.066.8a1.359,1.359,0,0,0,1.846-1.341l-.119-2.212a1.357,1.357,0,0,1,1.007-1.386l2.14-.57a1.358,1.358,0,0,0,.7-2.17l-1.4-1.719A1.358,1.358,0,0,1,319.607,38.769Z"/><path class="c" d="M22.148,186.121l1.4-1.719a1.358,1.358,0,0,0-.705-2.17l-2.14-.569a1.359,1.359,0,0,1-1.007-1.387l.119-2.211a1.359,1.359,0,0,0-1.846-1.342l-2.066.8a1.358,1.358,0,0,1-1.63-.529l-1.2-1.86a1.36,1.36,0,0,0-2.282,0l-1.2,1.86a1.358,1.358,0,0,1-1.63.529l-2.067-.8a1.36,1.36,0,0,0-1.846,1.342l.12,2.211a1.361,1.361,0,0,1-1.008,1.387l-2.14.569a1.359,1.359,0,0,0-.7,2.17l1.4,1.719a1.361,1.361,0,0,1,0,1.714l-1.4,1.719a1.359,1.359,0,0,0,.705,2.17l2.14.57a1.36,1.36,0,0,1,1.008,1.386l-.12,2.212a1.359,1.359,0,0,0,1.846,1.341l2.067-.8a1.36,1.36,0,0,1,1.63.53l1.2,1.859a1.359,1.359,0,0,0,2.282,0l1.2-1.859a1.36,1.36,0,0,1,1.63-.53l2.066.8a1.359,1.359,0,0,0,1.846-1.341l-.119-2.212a1.358,1.358,0,0,1,1.007-1.386l2.14-.57a1.358,1.358,0,0,0,.705-2.17l-1.4-1.719A1.358,1.358,0,0,1,22.148,186.121Z"/></svg>