<?xml version="1.0" encoding="UTF-8" standalone="no"?>
<!-- Created with Inkscape (http://www.inkscape.org/) -->

<svg
   width="355.91702mm"
   height="338.74084mm"
   viewBox="0 0 355.91702 338.74084"
   version="1.1"
   id="svg1"
   xml:space="preserve"
   inkscape:version="1.4.2 (ebf0e940, 2025-05-08)"
   sodipodi:docname="performance-tuning-cycle.svg"
   xmlns:inkscape="http://www.inkscape.org/namespaces/inkscape"
   xmlns:sodipodi="http://sodipodi.sourceforge.net/DTD/sodipodi-0.dtd"
   xmlns:xlink="http://www.w3.org/1999/xlink"
   xmlns="http://www.w3.org/2000/svg"
   xmlns:svg="http://www.w3.org/2000/svg"><sodipodi:namedview
     id="namedview1"
     pagecolor="#ffffff"
     bordercolor="#000000"
     borderopacity="0.25"
     inkscape:showpageshadow="2"
     inkscape:pageopacity="0.0"
     inkscape:pagecheckerboard="0"
     inkscape:deskcolor="#d1d1d1"
     inkscape:document-units="mm"
     inkscape:zoom="0.38920968"
     inkscape:cx="494.59202"
     inkscape:cy="727.1145"
     inkscape:window-width="1920"
     inkscape:window-height="1021"
     inkscape:window-x="1920"
     inkscape:window-y="120"
     inkscape:window-maximized="0"
     inkscape:current-layer="g8" /><defs
     id="defs1"><style
       id="style1">.cls-1{fill:#e29e9a;}.cls-2{fill:#f6e3a6;}.cls-3{fill:#623905;}.cls-4{fill:#268484;}.cls-5{fill:#2c9ea5;}.cls-6{fill:#842835;}</style></defs><g
     inkscape:label="Layer 1"
     inkscape:groupmode="layer"
     id="layer1"
     transform="translate(873.49307,369.73633)"><g
       style="fill:none"
       id="g1"
       transform="matrix(8.8194444,0,0,8.8194444,-346.74945,531.95496)"><path
         opacity="0.15"
         d="M 5,20 3,8 8.5,12.5 12,7 15.5,12.5 21,8 19,20 Z"
         fill="#000000"
         id="path1" /><path
         d="M 21,8 19,20 H 5 L 3,8 M 21,8 15.5,12.5 12,7 m 9,1 C 21.8284,8 22.5,7.32843 22.5,6.5 22.5,5.67157 21.8284,5 21,5 20.1716,5 19.5,5.67157 19.5,6.5 19.5,7.32843 20.1716,8 21,8 Z M 12,7 8.5,12.5 3,8 M 12,7 C 12.8284,7 13.5,6.32843 13.5,5.5 13.5,4.67157 12.8284,4 12,4 11.1716,4 10.5,4.67157 10.5,5.5 10.5,6.32843 11.1716,7 12,7 Z M 3,8 C 3.82843,8 4.5,7.32843 4.5,6.5 4.5,5.67157 3.82843,5 3,5 2.17157,5 1.5,5.67157 1.5,6.5 1.5,7.32843 2.17157,8 3,8 Z"
         stroke="#000000"
         stroke-width="1.5"
         stroke-linecap="round"
         stroke-linejoin="round"
         id="path2" /></g><g
       style="fill:none"
       id="g2"
       transform="matrix(3.3231518,0,0,3.3231518,-737.93554,-167.82737)"><g
         opacity="0.15"
         id="g3"><path
           d="m 12,3 c 1.1046,0 2,0.89543 2,2 0,1.10457 -0.8954,2 -2,2 -1.1046,0 -2,-0.89543 -2,-2 0,-1.10457 0.8954,-2 2,-2 z"
           fill="#000000"
           id="path1-7" /><path
           d="m 18,10 c 1.1046,0 2,0.8954 2,2 0,1.1046 -0.8954,2 -2,2 -1.1046,0 -2,-0.8954 -2,-2 0,-1.1046 0.8954,-2 2,-2 z"
           fill="#000000"
           id="path2-9" /><path
           d="m 6,17 c 1.10457,0 2,0.8954 2,2 0,1.1046 -0.89543,2 -2,2 -1.10457,0 -2,-0.8954 -2,-2 0,-1.1046 0.89543,-2 2,-2 z"
           fill="#000000"
           id="path3" /></g><path
         d="m 4,5 h 6 m 0,0 c 0,1.10457 0.8954,2 2,2 1.1046,0 2,-0.89543 2,-2 m -4,0 c 0,-1.10457 0.8954,-2 2,-2 1.1046,0 2,0.89543 2,2 m 0,0 h 6 M 4,12 h 12 m 0,0 c 0,1.1046 0.8954,2 2,2 1.1046,0 2,-0.8954 2,-2 0,-1.1046 -0.8954,-2 -2,-2 -1.1046,0 -2,0.8954 -2,2 z M 8,19 H 20 M 8,19 c 0,-1.1046 -0.89543,-2 -2,-2 -1.10457,0 -2,0.8954 -2,2 0,1.1046 0.89543,2 2,2 1.10457,0 2,-0.8954 2,-2 z"
         stroke="#000000"
         stroke-width="1.5"
         stroke-linecap="round"
         id="path4"
         style="stroke:#999999" /></g><g
       style="fill:none"
       id="g4"
       transform="matrix(8.8194444,0,0,8.8194444,376.74996,295.10798)"><path
         opacity="0.15"
         fill-rule="evenodd"
         clip-rule="evenodd"
         d="m 8,10 v 10 h 9.3604 c 0.9534,0 1.7742,-0.6729 1.9612,-1.6078 l 1.2,-6 C 20.7691,11.1547 19.8225,10 18.5604,10 H 14 L 16.4258,6.36138 C 17.1929,5.2106 16.5885,3.64714 15.2467,3.31169 L 15.1992,3.2998 c -0.735,-0.18373 -1.5106,0.06353 -2.0036,0.6387 z"
         fill="#000000"
         id="path1-3" /><path
         d="M 8,10 V 20 M 8,10 4,9.99998 V 20 H 8 M 8,10 13.1956,3.93847 c 0.493,-0.57517 1.2686,-0.82243 2.0036,-0.6387 l 0.0475,0.01189 c 1.3418,0.33545 1.9462,1.89891 1.1791,3.04969 L 14,9.99998 h 4.5604 c 1.2621,0 2.2087,1.15462 1.9612,2.39222 l -1.2,6 C 19.1346,19.3271 18.3138,20 17.3604,20 H 8"
         stroke="#000000"
         stroke-width="1.5"
         stroke-linecap="round"
         stroke-linejoin="round"
         id="path2-8" /></g><g
       style="fill:none"
       id="g5"
       transform="matrix(8.8194444,0,0,8.8194444,695.52739,-286.40046)"><path
         opacity="0.15"
         d="m 10,17 c 3.866,0 7,-3.134 7,-7 0,-3.86599 -3.134,-7 -7,-7 -3.86599,0 -7,3.13401 -7,7 0,3.866 3.13401,7 7,7 z"
         fill="#000000"
         id="path1-0" /><path
         d="m 20,20 -5.0503,-5.0503 m 0,0 C 16.2165,13.683 17,11.933 17,10 17,6.13401 13.866,3 10,3 6.13401,3 3,6.13401 3,10 c 0,3.866 3.13401,7 7,7 1.933,0 3.683,-0.7835 4.9497,-2.0503 z M 7,10 h 6 M 10,7 v 6"
         stroke="#000000"
         stroke-width="1.5"
         stroke-linecap="round"
         stroke-linejoin="round"
         id="path2-2" /></g><g
       style="fill:none"
       id="g6"
       transform="matrix(3.3231518,0,0,3.3231518,-663.18989,-289.83244)"><path
         opacity="0.15"
         fill-rule="evenodd"
         clip-rule="evenodd"
         d="M 12,5 C 5.63636,5 2,12 2,12 c 0,0 3.63636,7 10,7 6.3636,0 10,-7 10,-7 0,0 -3.6364,-7 -10,-7 z m 3,7 c 0,1.6569 -1.3431,3 -3,3 -1.6569,0 -3,-1.3431 -3,-3 0,-1.6569 1.3431,-3 3,-3 1.6569,0 3,1.3431 3,3 z"
         fill="#000000"
         id="path1-4" /><path
         d="M 12,5 C 5.63636,5 2,12 2,12 c 0,0 3.63636,7 10,7 6.3636,0 10,-7 10,-7 0,0 -3.6364,-7 -10,-7 z"
         stroke="#000000"
         stroke-width="1.5"
         stroke-linecap="round"
         stroke-linejoin="round"
         id="path2-83"
         style="stroke:#999999" /><path
         d="m 12,15 c 1.6569,0 3,-1.3431 3,-3 0,-1.6569 -1.3431,-3 -3,-3 -1.6569,0 -3,1.3431 -3,3 0,1.6569 1.3431,3 3,3 z"
         stroke="#000000"
         stroke-width="1.5"
         stroke-linecap="round"
         stroke-linejoin="round"
         id="path3-9"
         style="stroke:#999999" /></g><g
       style="fill:none"
       id="g8"
       transform="matrix(3.3231518,0,0,3.3231518,-812.51916,-295.60893)"><path
         opacity="0.15"
         d="M 19.41134,13.015821 C 19.41134,17.434121 15.6421,21 11.5,21 7.35786,21 4,17.4183 4,13 4,8.58172 7.35786,5 11.5,5 c 4.1421,0 7.91134,3.5975408 7.91134,8.015821 z"
         fill="#000000"
         id="path1-79"
         sodipodi:nodetypes="sssss" /><path
         d="m 10,3 h 4 m -2,6 v 4 l 2,2 m 6,-2 c 0,4.4183 -3.5817,8 -8,8 -4.41828,0 -8,-3.5817 -8,-8 0,-4.41828 3.58172,-8 8,-8 4.4183,0 8,3.58172 8,8 z"
         stroke="#000000"
         stroke-width="1.5"
         stroke-linecap="round"
         stroke-linejoin="round"
         id="path2-0"
         style="stroke:#999999" /></g><circle
       style="fill:none;stroke:none;stroke-width:1;stroke-linecap:round;stroke-linejoin:round;stroke-dasharray:none"
       id="path12"
       cx="-698.66113"
       cy="-214.34155"
       r="274.25504" /><text
       xml:space="preserve"
       style="font-size:49.3889px;font-family:Iosevka;-inkscape-font-specification:Iosevka;text-align:start;writing-mode:lr-tb;direction:ltr;text-anchor:start;fill:#000000;stroke:none;stroke-width:3.65822;stroke-linecap:round;stroke-linejoin:round;stroke-dasharray:none"
       id="text12"
       inkscape:transform-center-x="1.9313315"
       inkscape:transform-center-y="14.110835"
       transform="rotate(176.61211,-697.00636,-209.41494)"><textPath
         xlink:href="#circle15"
         id="textPath15"
         style="font-size:49.3889px;fill:#999999">MEASURE     ISOLATE <tspan
   style="font-size:24.6944px;fill:#999999"
   id="tspan17"> </tspan>   OPTIMIZE</textPath></text><circle
       style="fill:none;stroke:none;stroke-width:0.515815;stroke-linecap:round;stroke-linejoin:round;stroke-dasharray:none"
       id="circle15"
       cx="-698.46234"
       cy="-209.95392"
       r="141.46497" /></g></svg>
